<?xml version="1.0" encoding="UTF-8"?>
<svg width="500px" height="500px" viewBox="0 0 500 500" version="1.1" xmlns="http://www.w3.org/2000/svg" xmlns:xlink="http://www.w3.org/1999/xlink">
    <!-- Generator: Sketch 51 (57462) - http://www.bohemiancoding.com/sketch -->
    <title>Artboard</title>
    <desc>Created with Sketch.</desc>
    <defs></defs>
    <g id="Artboard" stroke="none" stroke-width="1" fill="none" fill-rule="evenodd">
        <rect fill="#E9E9E9" x="0" y="0" width="500" height="500"></rect>
        <path d="M100,393.961995 L100,107.064542 L256.090368,107.064542 C285.034421,107.064542 313.991005,106.160176 329.290005,111.122014 C337.066314,113.64406 348.732791,118.712135 359.107473,126.456712 C369.143793,133.948705 377.934618,144.041272 382.961447,151.162613 C393.184579,165.645384 398.122265,189.40986 398.122265,208.705896 C398.122265,225.521013 394.036506,246.679594 387.221085,259.357425 C380.405664,272.035257 368.478677,286.698563 350.588196,299.398025 C356.267714,309.053205 372.738315,340.574528 400,393.961995 L304.584103,393.961995 L261.98772,313.880795 L187.870014,313.880795 L187.870014,393.961995 L100,393.961995 Z M187.870014,232.172073 L279.878201,232.172073 C290.95326,232.172073 300.3332,218.464898 300.3332,208.705896 C300.3332,198.946894 291.805188,185.23972 279.878201,185.23972 L187.870014,185.23972 L187.870014,232.172073 Z" id="R" fill="#B73126"></path>
    </g>
</svg>